Coordinates
version=1
nRows=43
nColumns=38
inDegrees=no

Units are S.I. units (second, meters, Newtons, ...)
If the header above contains a line with 'inDegrees', this indicates whether rotational values are in degrees (yes) or radians (no).

endheader
time	pelvis_tilt	pelvis_list	pelvis_rotation	pelvis_tx	pelvis_ty	pelvis_tz	hip_flexion_r	hip_adduction_r	hip_rotation_r	knee_angle_r	ankle_angle_r	subtalar_angle_r	mtp_angle_r	hip_flexion_l	hip_adduction_l	hip_rotation_l	knee_angle_l	ankle_angle_l	subtalar_angle_l	mtp_angle_l	lumbar_extension	lumbar_bending	lumbar_rotation	arm_flex_r	arm_add_r	arm_rot_r	elbow_flex_r	pro_sup_r	wrist_flex_r	wrist_dev_r	arm_flex_l	arm_add_l	arm_rot_l	elbow_flex_l	pro_sup_l	wrist_flex_l	wrist_dev_l
0	0.549656	1.4438	1.025	0.668452	0.843076	1.048	0.101528	-0.0175415	-0.391137	0.162991	-0.394411	0	0	0.0178454	-0.134718	-0.207963	0	-0.527128	0	0	0.197653	0.0985722	-0.244997	0.265931	-0.565011	1.5708	0.804927	0.384718	0	0	-0.238613	-0.241098	0.328368	0.626801	1.193	0	0
0.01	0.549742	1.44324	1.02521	0.668473	0.843083	1.04798	0.100048	-0.0168567	-0.386605	0.158383	-0.39554	0	0	0.0180165	-0.134967	-0.206295	0	-0.527251	0	0	0.197579	0.0981319	-0.243687	0.26527	-0.563281	1.5708	0.801246	0.385782	0	0	-0.238503	-0.241767	0.327984	0.628941	1.19378	0	0
0.02	0.55066	1.4432	1.02463	0.668468	0.843127	1.04798	0.0999342	-0.0167485	-0.38691	0.158373	-0.395588	0	0	0.0179259	-0.135082	-0.205785	0	-0.527311	0	0	0.197372	0.0981419	-0.243867	0.265175	-0.563636	1.5708	0.801189	0.384979	0	0	-0.238448	-0.241549	0.327304	0.629562	1.19425	0	0
0.03	0.55141	1.44307	1.02429	0.668452	0.84318	1.04798	0.0998822	-0.0165729	-0.387068	0.158247	-0.395632	0	0	0.0181038	-0.135322	-0.205334	0	-0.527212	0	0	0.19723	0.0981803	-0.244206	0.265002	-0.563957	1.5708	0.801304	0.383575	0	0	-0.238498	-0.241341	0.326491	0.630408	1.19473	0	0
0.04	0.550877	1.44281	1.02527	0.668446	0.843253	1.04797	0.0999024	-0.0164638	-0.387047	0.157816	-0.395616	0	0	0.0184008	-0.135416	-0.204891	0	-0.527221	0	0	0.197543	0.09812	-0.244434	0.264549	-0.564248	1.5708	0.801228	0.383288	0	0	-0.238839	-0.241203	0.325629	0.63155	1.19523	0	0
0.05	0.550243	1.4427	1.02612	0.668461	0.843307	1.04796	0.0999083	-0.0164212	-0.386851	0.15749	-0.395568	0	0	0.0185434	-0.13543	-0.204795	0	-0.527237	0	0	0.197619	0.0980214	-0.244325	0.2643	-0.564551	1.5708	0.801116	0.383707	0	0	-0.238984	-0.241121	0.32484	0.632657	1.19556	0	0
0.06	0.550032	1.44264	1.02666	0.66846	0.843376	1.04795	0.0998011	-0.0164195	-0.386911	0.157415	-0.39557	0	0	0.0187183	-0.1355	-0.204723	0	-0.527233	0	0	0.19765	0.0979061	-0.244339	0.264113	-0.564829	1.5708	0.80091	0.384542	0	0	-0.239087	-0.241096	0.324195	0.633744	1.19594	0	0
0.07	0.549497	1.44249	1.02749	0.668472	0.843453	1.04792	0.0997032	-0.0163905	-0.386918	0.157191	-0.395515	0	0	0.0186975	-0.135434	-0.204247	0	-0.527309	0	0	0.197895	0.0977839	-0.244194	0.26391	-0.565163	1.5708	0.800706	0.38537	0	0	-0.239151	-0.241107	0.323624	0.634785	1.19645	0	0
0.08	0.547807	1.44229	1.02948	0.66847	0.843527	1.0479	0.099754	-0.0164606	-0.38674	0.156867	-0.395338	0	0	0.0192388	-0.135484	-0.204705	0	-0.527255	0	0	0.198292	0.0976001	-0.244057	0.263632	-0.56545	1.5708	0.800572	0.385555	0	0	-0.239197	-0.241096	0.323102	0.635763	1.19686	0	0
0.09	0.54556	1.44197	1.03191	0.668481	0.843576	1.04786	0.100115	-0.0164822	-0.386051	0.156652	-0.395027	0	0	0.019483	-0.135255	-0.204014	0	-0.52739	0	0	0.198838	0.0975769	-0.243831	0.263426	-0.565858	1.5708	0.800745	0.385514	0	0	-0.239181	-0.241084	0.322813	0.636795	1.19742	0	0
0.1	0.543717	1.44182	1.03397	0.668474	0.843607	1.04785	0.100355	-0.0166041	-0.385417	0.156638	-0.394873	0	0	0.0200254	-0.13521	-0.203956	0	-0.527306	0	0	0.199033	0.0975545	-0.243735	0.263493	-0.566108	1.5708	0.800706	0.3855	0	0	-0.239035	-0.241107	0.322716	0.637845	1.19803	0	0
0.11	0.542286	1.44167	1.03574	0.668475	0.84366	1.04784	0.100555	-0.0166864	-0.385205	0.156719	-0.394727	0	0	0.020184	-0.135076	-0.203322	0	-0.527404	0	0	0.199157	0.0974893	-0.243784	0.263602	-0.566252	1.5708	0.800636	0.385568	0	0	-0.238906	-0.241074	0.322311	0.638621	1.19857	0	0
0.12	0.541161	1.44154	1.03722	0.668466	0.84375	1.04783	0.10068	-0.0167716	-0.385418	0.156818	-0.394589	0	0	0.0203693	-0.135047	-0.203016	0	-0.527504	0	0	0.199305	0.0974683	-0.243851	0.26367	-0.566302	1.5708	0.80042	0.385608	0	0	-0.238783	-0.240936	0.321686	0.639219	1.19905	0	0
0.13	0.540686	1.44147	1.03805	0.668446	0.843837	1.04783	0.100651	-0.0168253	-0.385514	0.156811	-0.394494	0	0	0.0203897	-0.135051	-0.202569	0	-0.527604	0	0	0.19944	0.0975314	-0.243804	0.263718	-0.566494	1.5708	0.800305	0.385472	0	0	-0.238535	-0.24074	0.321072	0.639688	1.19955	0	0
0.14	0.540978	1.44145	1.0381	0.668433	0.843912	1.04784	0.10045	-0.016771	-0.385272	0.156607	-0.394429	0	0	0.0202996	-0.135064	-0.202078	0	-0.527592	0	0	0.199366	0.0976646	-0.243785	0.263907	-0.566595	1.5708	0.800118	0.385342	0	0	-0.238201	-0.240554	0.320453	0.640067	1.19978	0	0
0.15	0.541091	1.44148	1.03833	0.668416	0.843994	1.04784	0.100199	-0.0167749	-0.385029	0.156406	-0.394239	0	0	0.0202635	-0.135064	-0.201912	0	-0.527509	0	0	0.199134	0.097741	-0.243912	0.264208	-0.56664	1.5708	0.800102	0.385319	0	0	-0.237927	-0.240449	0.319838	0.640456	1.20001	0	0
0.16	0.540744	1.44147	1.03893	0.668414	0.84408	1.04782	0.100126	-0.0168238	-0.385087	0.156448	-0.394006	0	0	0.0202412	-0.135046	-0.201686	0	-0.527465	0	0	0.198948	0.0977296	-0.244025	0.264395	-0.566498	1.5708	0.800075	0.386029	0	0	-0.237837	-0.240561	0.319407	0.641201	1.20039	0	0
0.17	0.540286	1.44144	1.03964	0.668424	0.844162	1.04781	0.100107	-0.0168584	-0.385222	0.156515	-0.39381	0	0	0.0202379	-0.134988	-0.201439	0	-0.527455	0	0	0.198812	0.0977395	-0.244098	0.264603	-0.566274	1.5708	0.799825	0.387771	0	0	-0.237661	-0.240695	0.319161	0.641785	1.20057	0	0
0.18	0.539888	1.44139	1.04029	0.668427	0.844243	1.04779	0.100107	-0.0169068	-0.385123	0.156648	-0.393655	0	0	0.0203022	-0.134977	-0.201503	0	-0.527441	0	0	0.198637	0.0977758	-0.2442	0.264944	-0.566044	1.5708	0.799457	0.390622	0	0	-0.237433	-0.240826	0.318981	0.64223	1.20069	0	0
0.19	0.539509	1.44131	1.04087	0.668428	0.844328	1.04777	0.100129	-0.0169271	-0.384641	0.156742	-0.393587	0	0	0.0203094	-0.134976	-0.201416	0	-0.527442	0	0	0.198422	0.0978807	-0.244372	0.265358	-0.565736	1.5708	0.79894	0.394658	0	0	-0.237195	-0.240955	0.31892	0.642524	1.20091	0	0
0.2	0.539138	1.44118	1.04132	0.668438	0.844405	1.04775	0.100042	-0.016787	-0.383988	0.156275	-0.393607	0	0	0.020358	-0.13499	-0.201188	0	-0.527414	0	0	0.198143	0.0979442	-0.244396	0.265785	-0.565287	1.5708	0.798217	0.40028	0	0	-0.23681	-0.241139	0.318927	0.642787	1.20122	0	0
0.21	0.538498	1.44107	1.04212	0.668447	0.844486	1.04775	0.0999585	-0.0166891	-0.383508	0.155845	-0.393557	0	0	0.0204942	-0.135008	-0.20079	0	-0.527388	0	0	0.197969	0.0978659	-0.244322	0.266041	-0.564675	1.5708	0.797198	0.407786	0	0	-0.236427	-0.241347	0.318867	0.642981	1.20129	0	0
0.22	0.537662	1.44084	1.0429	0.668488	0.844607	1.04775	0.100116	-0.0165844	-0.382977	0.155766	-0.393399	0	0	0.0202794	-0.134889	-0.199533	0	-0.527362	0	0	0.19802	0.0977923	-0.244054	0.265956	-0.564065	1.5708	0.796342	0.417261	0	0	-0.23627	-0.241674	0.318907	0.643231	1.20122	0	0
0.23	0.536127	1.44052	1.04419	0.668526	0.844769	1.04774	0.100452	-0.0165791	-0.382706	0.15592	-0.393145	0	0	0.0205425	-0.134946	-0.199121	0	-0.5272	0	0	0.198274	0.0977332	-0.243758	0.265479	-0.563356	1.5708	0.795292	0.429911	0	0	-0.236303	-0.242056	0.319393	0.643474	1.20119	0	0
0.24	0.53244	1.43989	1.04803	0.668519	0.844849	1.0477	0.101398	-0.0167456	-0.382576	0.156325	-0.392767	0	0	0.0213361	-0.134734	-0.199613	0	-0.527184	0	0	0.199045	0.0975775	-0.243806	0.264736	-0.562544	1.5708	0.793894	0.447383	0	0	-0.236064	-0.242475	0.320539	0.64336	1.20131	0	0
0.25	0.528272	1.43936	1.05238	0.668516	0.844957	1.04766	0.102181	-0.0169901	-0.382575	0.156547	-0.392257	0	0	0.0223917	-0.134647	-0.200603	0	-0.526933	0	0	0.200365	0.0970928	-0.243036	0.262516	-0.561783	1.5708	0.792106	0.471488	0	0	-0.235769	-0.243004	0.322131	0.643165	1.20171	0	0
0.26	0.530058	1.43963	1.05086	0.668496	0.844994	1.04767	0.101799	-0.0169227	-0.382824	0.15666	-0.392628	0	0	0.0219421	-0.134681	-0.200335	0	-0.527195	0	0	0.198733	0.0977713	-0.243777	0.266189	-0.562083	1.5708	0.794031	0.446969	0	0	-0.235184	-0.242645	0.32085	0.643192	1.2015	0	0
0.27	0.531471	1.43993	1.04964	0.668486	0.845049	1.04768	0.101405	-0.0169238	-0.383213	0.156795	-0.392782	0	0	0.0215346	-0.134711	-0.200265	0	-0.527283	0	0	0.197541	0.0982359	-0.243673	0.268522	-0.562405	1.5708	0.795715	0.428451	0	0	-0.234378	-0.242371	0.320097	0.64291	1.20163	0	0
0.28	0.531872	1.44018	1.0493	0.66849	0.845102	1.04769	0.101176	-0.0170505	-0.383625	0.15709	-0.392846	0	0	0.0212515	-0.134614	-0.200335	0	-0.527274	0	0	0.196463	0.0986509	-0.243296	0.270647	-0.562675	1.5708	0.797066	0.414675	0	0	-0.233401	-0.242154	0.319848	0.642326	1.20188	0	0
0.29	0.532027	1.44044	1.04919	0.668497	0.845158	1.0477	0.100943	-0.0172096	-0.383903	0.157415	-0.392871	0	0	0.0209765	-0.134469	-0.200366	0	-0.527259	0	0	0.195486	0.0989504	-0.242777	0.272354	-0.562764	1.5708	0.797925	0.40441	0	0	-0.232511	-0.242083	0.319829	0.641873	1.20218	0	0
0.3	0.531928	1.44056	1.04936	0.668498	0.845224	1.04772	0.100837	-0.0173294	-0.384171	0.157682	-0.392871	0	0	0.0208526	-0.134459	-0.200298	0	-0.527271	0	0	0.194613	0.099203	-0.242341	0.27386	-0.562715	1.5708	0.798442	0.396733	0	0	-0.231711	-0.242122	0.320012	0.641531	1.20251	0	0
0.31	0.531324	1.4406	1.04993	0.668517	0.845282	1.04773	0.100987	-0.0174921	-0.384466	0.158194	-0.39281	0	0	0.0208359	-0.134517	-0.200082	0	-0.527312	0	0	0.193818	0.0993698	-0.241936	0.275297	-0.562472	1.5708	0.798702	0.39096	0	0	-0.230981	-0.242239	0.320239	0.641172	1.20282	0	0
0.32	0.53071	1.44068	1.05052	0.668544	0.84532	1.04775	0.101231	-0.017713	-0.384685	0.158942	-0.392577	0	0	0.0208508	-0.134402	-0.199891	0	-0.527347	0	0	0.192891	0.0995138	-0.241533	0.276854	-0.562157	1.5708	0.798923	0.386551	0	0	-0.230218	-0.242476	0.320628	0.640943	1.20318	0	0
0.33	0.52947	1.44075	1.05173	0.66857	0.845354	1.04777	0.101456	-0.0179154	-0.384727	0.159418	-0.392235	0	0	0.0210024	-0.13434	-0.199704	0	-0.527355	0	0	0.191883	0.0996107	-0.241151	0.278474	-0.561811	1.5708	0.799098	0.383165	0	0	-0.22946	-0.242739	0.321015	0.640822	1.20348	0	0
0.34	0.527835	1.44075	1.05335	0.668577	0.845382	1.04778	0.101699	-0.0181361	-0.384603	0.15983	-0.391996	0	0	0.021273	-0.134163	-0.199496	0	-0.527388	0	0	0.190791	0.099759	-0.240821	0.280229	-0.561547	1.5708	0.799272	0.380511	0	0	-0.228746	-0.243042	0.321458	0.640936	1.20377	0	0
0.35	0.526372	1.44073	1.05475	0.668582	0.845393	1.04778	0.101977	-0.0183229	-0.384379	0.16022	-0.391781	0	0	0.0215662	-0.133929	-0.199408	0	-0.527447	0	0	0.189535	0.100004	-0.240414	0.282238	-0.561468	1.5708	0.799619	0.378222	0	0	-0.227903	-0.243341	0.32199	0.641048	1.20401	0	0
0.36	0.524966	1.44077	1.05606	0.668594	0.845386	1.0478	0.102277	-0.0185677	-0.384292	0.160715	-0.39158	0	0	0.0219526	-0.133682	-0.19957	0	-0.527409	0	0	0.188087	0.100213	-0.239907	0.284403	-0.561347	1.5708	0.799769	0.377159	0	0	-0.226951	-0.243777	0.322832	0.641203	1.20434	0	0
0.37	0.523261	1.44084	1.05765	0.668633	0.845347	1.04783	0.102669	-0.018845	-0.383997	0.161353	-0.391408	0	0	0.0220497	-0.133363	-0.1988	0	-0.527553	0	0	0.18649	0.100332	-0.239308	0.286531	-0.561133	1.5708	0.799918	0.376768	0	0	-0.225921	-0.244294	0.323598	0.641468	1.20438	0	0
0.38	0.52095	1.4408	1.05984	0.668653	0.845306	1.04787	0.103202	-0.0191295	-0.383571	0.161911	-0.391292	0	0	0.0227626	-0.133179	-0.198908	0	-0.527527	0	0	0.184848	0.100519	-0.238751	0.288752	-0.560968	1.5708	0.800064	0.376337	0	0	-0.225055	-0.244641	0.324094	0.642026	1.20382	0	0
0.39	0.518672	1.44067	1.06192	0.668677	0.845246	1.04791	0.103991	-0.0193518	-0.38313	0.162768	-0.391156	0	0	0.0231101	-0.132923	-0.197991	0	-0.527691	0	0	0.18323	0.100841	-0.238345	0.291212	-0.560885	1.5708	0.800276	0.375959	0	0	-0.22428	-0.2448	0.324474	0.642497	1.20269	0	0
0.4	0.516386	1.44069	1.06401	0.668684	0.845176	1.04797	0.10473	-0.0197239	-0.382809	0.163799	-0.391041	0	0	0.0238162	-0.132765	-0.197872	0	-0.5277	0	0	0.181385	0.101098	-0.237895	0.293782	-0.560822	1.5708	0.800456	0.375517	0	0	-0.223325	-0.244936	0.324883	0.642854	1.20157	0	0
0.41	0.513765	1.44062	1.06646	0.668692	0.84509	1.04803	0.105616	-0.0201157	-0.382531	0.16489	-0.390949	0	0	0.0244614	-0.132368	-0.197238	0	-0.527813	0	0	0.179626	0.101427	-0.237455	0.296464	-0.560966	1.5708	0.800842	0.37481	0	0	-0.22223	-0.245329	0.326022	0.643405	1.20151	0	0
0.42	0.51092	1.44052	1.06905	0.668694	0.844978	1.04808	0.106601	-0.0204779	-0.381878	0.165922	-0.390811	0	0	0.0253633	-0.131969	-0.197	0	-0.527967	0	0	0.177684	0.101836	-0.236841	0.299414	-0.561233	1.5708	0.801325	0.373346	0	0	-0.220751	-0.246326	0.328759	0.644348	1.20282	0	0
